<?xml version="1.0" encoding="UTF-8"?>
<svg width="44px" height="44px" viewBox="0 0 44 44" version="1.1" xmlns="http://www.w3.org/2000/svg" xmlns:xlink="http://www.w3.org/1999/xlink">
    <!-- Generator: Sketch 49.3 (51167) - http://www.bohemiancoding.com/sketch -->
    <title>e-mail</title>
    <desc>Created with Sketch.</desc>
    <defs></defs>
    <g id="Page-1-Copy" stroke="none" stroke-width="1" fill="none" fill-rule="evenodd" stroke-linecap="round" stroke-linejoin="round">
        <g id="регистрация-2" transform="translate(-698.000000, -366.000000)" stroke="#6456D6" stroke-width="1.39999998">
            <g id="Group-3" transform="translate(420.000000, 260.000000)">
                <g id="Group-2" transform="translate(139.000000, 107.000000)">
                    <g id="e-mail" transform="translate(140.000000, 0.000000)">
                        <path d="M36.4,22.12 L36.4,0 L5.6,0 L5.6,22.12 M11.2,7 L18.2,7 M15.4,12.6 L30.8,12.6 M11.2,18.2 L30.8,18.2" id="Shape"></path>
                        <path d="M28.056,27.9608 L42,18.2 M0,18.2 L13.944,27.9608 M0,42 L14.6503,27.2503 C17.3838,24.5203 24.6162,24.5203 27.3504,27.2503 L42,42" id="Shape"></path>
                        <polyline id="Shape" points="36.4 13.3441 42 18.2 42 42 0 42 0 18.2 5.6 13.3441"></polyline>
                    </g>
                </g>
            </g>
        </g>
    </g>
</svg>